<svg width="270" height="257" viewBox="0 0 270 257" fill="none" xmlns="http://www.w3.org/2000/svg">
<mask id="mask0_434_88" style="mask-type:luminance" maskUnits="userSpaceOnUse" x="0" y="0" width="270" height="257">
<path d="M269.699 58.0365L53.1035 0L0.00135226 198.18L216.597 256.217L269.699 58.0365Z" fill="white"/>
</mask>
<g mask="url(#mask0_434_88)">
<g opacity="0.2">
<path d="M103.344 147.898C102.039 147.549 100.999 146.901 100.347 145.988C99.1808 144.331 99.5409 142.003 101.343 139.612L120.855 113.762C123.517 110.231 128.87 107.29 133.82 106.639C136.639 106.261 139.006 106.684 140.489 107.846L158.811 122.087C160.056 123.053 160.559 124.427 160.285 126.041C159.592 129.809 154.694 134.006 148.859 135.79L111.031 147.375C108.067 148.294 105.363 148.439 103.344 147.898ZM138.114 107.553C136.932 107.236 135.499 107.168 133.906 107.4C129.148 108.023 124.013 110.839 121.472 114.217L101.96 140.067C100.36 142.196 100 144.129 100.997 145.53C102.428 147.574 106.266 148.022 110.777 146.648L148.588 135.032C154.913 133.089 158.921 128.865 159.484 125.879C159.734 124.549 159.338 123.467 158.306 122.69L139.984 108.449C139.484 108.051 138.852 107.75 138.114 107.553Z" fill="#DDB45C"/>
<path d="M101.655 151.241C100.424 150.911 99.4206 150.326 98.7237 149.48C97.3791 147.802 97.5357 145.445 99.2356 142.843L117.863 114.093C122.177 107.446 133.69 103.177 138.757 106.327L160.527 119.91C162.02 120.838 162.72 122.264 162.543 124.009C162.155 128.017 157.21 132.781 151.052 135.085L110.661 150.227C107.22 151.546 104.019 151.874 101.655 151.241ZM136.779 106.324C131.535 104.919 122.159 108.891 118.517 114.506L99.8902 143.255C98.4056 145.546 98.1985 147.599 99.3316 148.984C101.076 151.138 105.53 151.356 110.4 149.525L150.792 134.383C157.51 131.86 161.471 127.122 161.764 123.959C161.918 122.497 161.35 121.37 160.108 120.589L138.338 107.006C137.891 106.701 137.37 106.483 136.779 106.324Z" fill="#DDB45C"/>
<path d="M100.132 154.868C98.9742 154.558 98.0307 154.042 97.3387 153.276C95.802 151.626 95.7994 149.174 97.3107 146.389L114.628 114.652C118.619 107.339 130.807 101.933 136.724 104.862L162.207 117.49C163.979 118.36 164.901 119.846 164.863 121.76C164.767 126.057 159.988 131.288 153.454 134.203L110.679 153.319C106.7 155.073 102.889 155.607 100.132 154.868ZM135.199 105.139C129.34 103.569 118.826 108.634 115.314 115.047L97.9966 146.784C96.6514 149.244 96.6346 151.374 97.9219 152.774C99.6833 154.669 104.198 155.351 110.363 152.628L153.156 133.543C160.169 130.414 164.034 125.149 164.114 121.797C164.14 120.222 163.363 118.986 161.873 118.244L136.39 105.616C136.029 105.388 135.617 105.251 135.199 105.139Z" fill="#DDB45C"/>
<path d="M98.9094 158.837C97.8508 158.553 96.95 158.074 96.2316 157.407C94.5028 155.784 94.2606 153.241 95.6013 150.306L111.144 115.537C114.721 107.507 127.522 100.893 134.341 103.511L163.833 114.867C165.94 115.669 167.114 117.196 167.215 119.279C167.462 123.774 162.76 129.604 156.044 133.103L110.977 156.535C106.475 158.861 102.036 159.674 98.9094 158.837ZM133.338 104.007C126.789 102.252 115.099 108.557 111.825 115.851L96.2823 150.62C95.1077 153.231 95.2747 155.464 96.7542 156.836C98.8602 158.823 103.983 159.3 110.612 155.83L155.654 132.392C162.918 128.619 166.637 122.814 166.417 119.302C166.304 117.559 165.305 116.263 163.536 115.578L134.045 104.223C133.83 104.139 133.584 104.073 133.338 104.007Z" fill="#DDB45C"/>
<path d="M97.9769 163.093C97.0168 162.836 96.152 162.419 95.4384 161.833C93.4864 160.255 93.0226 157.653 94.0943 154.54L107.352 116.681C110.402 107.956 123.733 99.9562 131.516 102.226L165.258 111.9C167.706 112.608 169.182 114.19 169.472 116.456C170.087 121.154 165.548 127.556 158.661 131.694L111.686 159.886C106.653 162.914 101.522 164.043 97.9769 163.093ZM131.188 102.955C123.852 100.99 110.951 108.762 108.095 116.959L94.8377 154.818C93.8517 157.612 94.2468 159.879 95.9364 161.255C98.9252 163.69 105.244 162.852 111.307 159.231L158.307 131.046C165.818 126.548 169.247 120.349 168.753 116.579C168.507 114.642 167.238 113.274 165.103 112.675L131.361 103.001C131.287 102.982 131.238 102.968 131.188 102.955Z" fill="#DDB45C"/>
<path d="M97.4098 167.686C96.5481 167.455 95.7686 167.114 95.078 166.639C92.8779 165.101 92.1368 162.451 92.964 159.166L103.373 118.251C105.767 108.823 119.53 99.4095 128.354 101.141L166.588 108.724C169.416 109.297 171.243 110.946 171.746 113.401C172.764 118.366 168.552 125.224 161.48 130.051L112.837 163.384C107.278 167.193 101.447 168.768 97.4098 167.686ZM167.012 109.602C166.84 109.556 166.643 109.503 166.439 109.475L128.206 101.892C119.887 100.243 106.399 109.519 104.118 118.424L93.7092 159.34C92.961 162.329 93.5597 164.624 95.5218 165.967C99.0786 168.449 106.031 167.123 112.403 162.741L161.046 129.407C168.643 124.194 171.815 117.479 170.996 113.543C170.578 111.559 169.203 110.189 167.012 109.602Z" fill="#DDB45C"/>
<path d="M97.1727 172.502C96.4587 172.31 95.7958 172.027 95.2018 171.684C92.7407 170.233 91.6729 167.522 92.1999 164.078L99.1168 120.144C100.712 110.054 114.823 99.047 124.702 100.192L167.682 105.224C170.958 105.601 173.168 107.3 173.921 110.006C175.369 115.139 171.45 122.576 164.385 128.064L114.506 166.997C108.506 171.663 101.752 173.729 97.1727 172.502ZM167.626 105.63L167.576 106.012L124.596 100.98C115.229 99.8939 101.382 110.708 99.8752 120.269L92.9582 164.202C92.4545 167.362 93.3552 169.713 95.5653 171.016C99.759 173.485 107.339 171.588 113.984 166.383L163.882 127.481C170.69 122.162 174.517 115.068 173.144 110.246C172.473 107.825 170.537 106.384 167.545 106.03L167.626 105.63Z" fill="#DDB45C"/>
<path d="M97.4665 177.612C96.9249 177.467 96.3965 177.272 95.9059 177.035C93.1278 175.685 91.6956 172.955 91.8977 169.345L94.6279 122.523C95.2455 111.749 109.563 99.0838 120.579 99.5311L168.493 101.51C172.249 101.673 174.929 103.392 175.986 106.338C177.871 111.614 174.325 119.627 167.367 125.802L116.722 170.645C110.322 176.311 102.711 179.017 97.4665 177.612ZM168.475 101.874L168.45 102.263L120.535 100.284C110.095 99.8588 96.0083 112.349 95.4126 122.549L92.6824 169.371C92.4789 172.69 93.7128 175.077 96.2333 176.306C101.14 178.675 109.349 176.103 116.169 170.049L166.796 125.175C173.541 119.206 176.988 111.562 175.192 106.547C174.222 103.862 171.879 102.365 168.407 102.225L168.475 101.874Z" fill="#DDB45C"/>
<path d="M98.3293 182.957C97.9847 182.865 97.6466 182.748 97.3331 182.637C94.1757 181.422 92.3545 178.667 92.1758 174.903L89.9935 125.341C89.7685 120.272 92.4697 114.327 97.4359 108.989C102.924 103.079 110.035 99.29 115.991 99.1198L168.967 97.4724C173.278 97.3359 176.434 99.0513 177.857 102.306C180.257 107.826 177.25 116.193 170.353 123.123L119.559 174.332C112.825 181.147 104.287 184.553 98.3293 182.957ZM172.33 98.6107C171.32 98.3402 170.216 98.2287 168.991 98.2696L115.997 99.8858C110.251 100.06 103.328 103.74 97.9771 109.529C93.2311 114.636 90.5431 120.533 90.7421 125.304L92.949 174.873C93.0951 178.365 94.7115 180.801 97.6047 181.919C103.299 184.104 112.083 180.764 119.018 173.792L169.812 122.583C176.357 115.98 179.38 107.749 177.141 102.615C176.26 100.586 174.595 99.2176 172.33 98.6107Z" fill="#DDB45C"/>
<path d="M99.7974 188.517C99.7236 188.497 99.6497 188.478 99.5759 188.458C96.0013 187.421 93.7039 184.67 93.0953 180.738L85.1745 128.663C84.4061 123.554 86.5561 117.303 91.0795 111.451C96.5118 104.471 104.096 99.7025 110.876 99.0152L169.066 93.1763C173.976 92.6733 177.688 94.3796 179.533 97.9317C182.457 103.565 179.991 112.473 173.392 120.063L123.117 178.001C116.134 186.041 106.592 190.338 99.7974 188.517ZM169.108 93.6094L169.139 93.9867L110.949 99.8255C104.361 100.485 96.9955 105.128 91.6831 111.955C87.2929 117.606 85.1957 123.66 85.9363 128.577L93.8571 180.652C94.4266 184.337 96.4632 186.78 99.7916 187.751C106.332 189.635 115.662 185.44 122.531 177.528L172.793 119.639C179.196 112.287 181.619 103.736 178.833 98.3769C177.144 95.13 173.683 93.57 169.126 94.0359L169.108 93.6094Z" fill="#DDB45C"/>
<path d="M101.976 194.269C98.3328 193.292 95.7858 190.686 94.7551 186.851L80.2435 132.589C78.8759 127.451 80.4007 120.874 84.4748 114.532C89.6717 106.462 97.6196 100.631 105.238 99.3769L168.7 88.7298C174.254 87.7931 178.616 89.4363 180.982 93.3124C184.514 99.1354 182.735 108.333 176.402 116.706L127.452 181.615C120.619 190.671 110.467 195.964 102.795 194.462C102.524 194.389 102.247 194.341 101.976 194.269ZM174.817 89.631C173.069 89.1626 171.055 89.0974 168.817 89.473L105.355 100.12C97.9538 101.353 90.2064 107.027 85.1294 114.945C81.1885 121.085 79.6738 127.428 80.989 132.367L95.5007 186.629C96.5493 190.495 99.1113 192.948 102.925 193.68C110.326 195.109 120.148 189.965 126.817 181.129L175.767 116.219C181.792 108.212 183.635 99.1637 180.295 93.7083C179.056 91.6365 177.181 90.2642 174.817 89.631Z" fill="#DDB45C"/>
<path d="M104.944 200.122C101.35 199.159 98.6516 196.723 97.2465 193.104L75.216 137.064C73.1754 131.878 74.0685 125 77.6439 118.156C82.3739 109.169 90.7629 102.086 99.042 100.139L167.8 84.0053C173.938 82.5658 179.143 84.1184 182.09 88.2824C186.258 94.1965 185.183 103.82 179.334 112.849L132.599 185.048C126.153 195.024 115.668 201.362 107.083 200.511C106.343 200.418 105.634 200.307 104.944 200.122ZM167.887 84.3712L167.974 84.7371L99.2334 100.902C91.1776 102.803 82.9644 109.723 78.3364 118.526C74.8694 125.162 73.9865 131.806 75.9501 136.787L97.9805 192.826C99.5822 196.893 102.763 199.301 107.158 199.74C115.459 200.567 125.644 194.361 131.945 184.635L178.654 112.43C184.326 103.669 185.42 94.3676 181.44 88.7407C178.643 84.8017 173.875 83.3924 167.967 84.7617L167.887 84.3712Z" fill="#DDB45C"/>
<path d="M108.795 206.033C105.299 205.097 102.493 202.868 100.724 199.521L70.2093 142.157C67.4399 136.934 67.6093 129.704 70.6615 122.35C74.8146 112.365 83.3212 104.153 92.3365 101.429L166.267 79.0888C173.102 77.0188 179.112 78.4185 182.79 82.9098C187.637 88.848 187.365 98.9236 182.117 108.562L138.677 188.26C132.798 199.074 122.077 206.587 112.676 206.519C111.297 206.545 110.001 206.356 108.795 206.033ZM166.49 79.8338L92.5591 102.174C83.7737 104.828 75.4428 112.876 71.3737 122.646C68.3988 129.81 68.2214 136.774 70.8827 141.81L101.373 199.168C103.615 203.406 107.631 205.748 112.639 205.771C121.781 205.822 132.221 198.471 137.978 187.915L181.418 108.217C186.513 98.8535 186.829 89.106 182.182 83.406C178.722 79.1839 173.007 77.8634 166.49 79.8338Z" fill="#DDB45C"/>
<path d="M113.537 211.971C110.14 211.06 107.299 209.06 105.228 206.054L65.2542 147.948C61.6262 142.679 60.9915 135.102 63.5157 127.158C66.9604 116.272 75.4304 106.917 85.0966 103.339L164.076 74.0747C171.633 71.2759 178.55 72.4439 183.045 77.2333C188.707 83.2842 189.354 93.4743 184.717 103.883L145.719 191.229C140.486 202.98 129.996 211.504 119.637 212.445C117.452 212.624 115.408 212.472 113.537 211.971ZM175.955 73.8573C172.508 72.9338 168.522 73.2364 164.311 74.7705L85.357 104.041C75.9206 107.549 67.6396 116.691 64.2477 127.381C61.8074 135.109 62.4029 142.439 65.8735 147.507L105.854 205.589C108.915 210.02 113.769 212.191 119.558 211.659C129.643 210.751 139.877 202.395 144.989 190.901L183.987 103.555C188.488 93.4534 187.917 83.5734 182.455 77.7606C180.676 75.8341 178.466 74.5302 175.955 73.8573Z" fill="#DDB45C"/>
<path d="M119.285 217.806C116.06 216.942 113.208 215.176 110.909 212.53L60.4142 154.399C55.816 149.107 54.31 141.138 56.2208 132.53C58.8324 120.814 67.1228 110.356 77.2988 105.86L161.029 68.9065C169.287 65.2672 177.192 66.0938 182.69 71.1784C189.187 77.1632 190.842 87.7287 187.006 98.6948L153.746 193.773C149.424 206.164 139.105 215.92 128.122 218.012C125.008 218.601 121.993 218.531 119.285 217.806ZM161.221 69.2742L161.388 69.6353L77.6396 106.558C67.6755 110.953 59.5674 121.222 56.9972 132.685C55.121 141.066 56.5879 148.787 61.0287 153.878L111.492 212.027C115.526 216.667 121.387 218.527 128.011 217.244C138.746 215.191 148.795 205.653 153.052 193.508L186.312 98.4297C190.044 87.7522 188.483 77.5279 182.199 71.732C176.932 66.8677 169.329 66.0956 161.37 69.6041L161.221 69.2742Z" fill="#DDB45C"/>
<path d="M126.102 223.481C123.074 222.67 120.318 221.14 117.9 218.937L55.8255 161.578C50.1143 156.305 47.5645 147.898 48.8326 138.537C50.5156 126.151 58.441 114.594 69.0595 109.136L157.196 63.7149C166.131 59.1236 175.076 59.5171 181.758 64.8132C189.177 70.7026 191.971 81.547 189.066 93.0787L163.01 195.834C159.677 208.964 150.028 219.664 138.399 223.085C134.044 224.37 129.869 224.49 126.102 223.481ZM157.37 64.0514L157.543 64.3879L69.4003 109.833C59.0183 115.197 51.2392 126.503 49.5975 138.637C48.3707 147.745 50.8255 155.915 56.3481 161.006L118.423 218.365C123.629 223.161 130.634 224.59 138.17 222.365C149.52 219.001 158.979 208.514 162.24 195.654L188.296 92.8988C191.147 81.6689 188.453 71.1411 181.271 65.4473C174.852 60.3533 166.191 59.9832 157.555 64.4437L157.37 64.0514Z" fill="#DDB45C"/>
<path d="M133.932 228.821C131.199 228.089 128.629 226.847 126.296 225.115L51.5142 169.491C44.4978 164.263 40.7501 155.404 41.2966 145.191C41.9723 132.034 49.2418 119.773 60.2865 113.217L152.335 58.5111C161.751 52.9151 172.084 52.7578 179.97 58.0869C188.572 63.8976 192.541 74.6879 190.625 86.9591L173.327 197.307C171.205 210.841 162.199 222.688 150.354 227.502C144.784 229.779 139.077 230.2 133.932 228.821ZM152.552 58.8854L152.75 59.2285L60.6832 113.903C49.8881 120.316 42.765 132.325 42.0747 145.241C41.5695 155.202 45.173 163.812 51.9942 168.882L126.776 224.505C133.293 229.336 141.773 230.184 150.094 226.799C161.677 222.074 170.519 210.446 172.593 197.189L189.885 86.8662C191.771 74.9033 187.908 64.4051 179.551 58.7653C171.933 53.6138 161.916 53.7765 152.757 59.2039L152.552 58.8854Z" fill="#DDB45C"/>
<path d="M142.978 233.853C140.64 233.227 138.386 232.28 136.25 230.996L47.7099 178.17C39.1584 173.058 34.0584 163.731 33.7308 152.546C33.3202 138.913 39.9798 125.778 51.1092 118.216L146.435 53.4495C156.37 46.7011 167.895 45.8353 177.241 51.1337C187.022 56.6804 192.429 67.6188 191.684 80.4412L184.899 198.033C184.098 212.053 176.149 224.685 164.186 231.022C157.201 234.738 149.773 235.674 142.978 233.853ZM146.664 53.7746L146.894 54.0997L51.5436 118.86C40.6393 126.271 34.0948 139.173 34.4975 152.54C34.8237 163.435 39.7729 172.538 48.0979 177.51L136.663 230.342C144.786 235.181 154.677 235.196 163.839 230.349C175.583 224.138 183.361 211.75 184.146 197.99L190.931 80.3974C191.645 67.8834 186.407 57.2011 176.871 51.8253C167.776 46.6733 156.573 47.5199 146.887 54.1243L146.664 53.7746Z" fill="#DDB45C"/>
<path d="M153.142 238.37C151.345 237.888 149.594 237.235 147.858 236.427L44.4207 187.596C34.091 182.72 27.404 172.915 26.0678 160.668C24.5314 146.707 30.4628 132.744 41.516 124.187L139.359 48.5488C149.704 40.5659 162.412 38.8309 173.375 43.9036C184.528 49.0537 191.541 60.1059 192.129 73.4699L197.731 197.914C198.367 212.081 191.52 225.72 179.837 233.476C171.455 239.059 161.981 240.738 153.142 238.37ZM168.169 42.8512C158.69 40.3116 148.435 42.5455 139.849 49.181L42.0063 124.819C31.1601 133.195 25.3438 146.925 26.8543 160.589C28.1579 172.563 34.6941 182.143 44.7661 186.898L148.204 235.728C158.208 240.439 169.57 239.397 179.427 232.839C190.885 225.233 197.611 211.852 196.982 197.95L191.356 73.4999C190.763 60.4509 183.919 49.6548 173.054 44.6084C171.459 43.8647 169.818 43.2932 168.169 42.8512Z" fill="#DDB45C"/>
<path d="M164.254 242.19C163.245 241.92 162.249 241.6 161.235 241.249L41.8633 197.824C29.6716 193.397 20.9135 182.852 18.4127 169.635C15.7275 155.235 20.6513 140.896 31.6547 131.244L131.038 43.9466C141.603 34.6519 155.484 31.8868 168.204 36.5077C180.9 41.122 189.754 52.1933 191.892 66.0778L211.879 196.801C214.1 211.262 208.666 225.437 197.341 234.713C187.753 242.529 175.604 245.231 164.254 242.19ZM164.938 36.2914C153.342 33.1844 141.065 36.1683 131.542 44.5297L32.1581 131.827C21.3618 141.297 16.5038 155.39 19.1631 169.493C21.6067 182.432 30.1828 192.769 42.1103 197.099L161.482 240.525C173.409 244.854 186.61 242.46 196.813 234.123C207.931 225.029 213.261 211.142 211.08 196.93L191.092 66.2063C189.018 52.5761 180.333 41.7609 167.933 37.2257C166.918 36.8749 165.922 36.5552 164.938 36.2914Z" fill="#DDB45C"/>
<path d="M176.511 245.292L40.1737 208.76C25.698 204.881 14.7272 193.928 10.8502 179.446C6.97327 164.964 10.9799 150.01 21.5721 139.431L121.322 39.7368C131.945 29.1397 146.923 25.1395 161.398 29.0182C175.874 32.897 186.845 43.85 190.722 58.3324L227.285 194.552C231.162 209.034 227.156 223.988 216.563 234.567C205.971 245.146 190.987 249.171 176.511 245.292ZM121.62 40.0013L121.888 40.2838L22.1134 139.972C11.7036 150.362 7.76939 165.045 11.5891 179.249C15.4089 193.452 26.1731 204.192 40.378 207.998L176.716 244.53C190.921 248.336 205.612 244.417 216.022 234.026C226.432 223.636 230.366 208.953 226.546 194.749L189.983 58.5298C186.163 44.3263 175.406 33.5623 161.201 29.756C146.996 25.9498 132.304 29.8685 121.894 40.2592L121.62 40.0013Z" fill="#DDB45C"/>
</g>
</g>
</svg>
