<svg width="800" height="800" viewBox="0 0 800 800" fill="none" xmlns="http://www.w3.org/2000/svg">
<path d="M292 50C358.304 50 421.892 76.3395 468.776 123.224C504.145 158.593 527.82 203.468 537.317 251.845C527.309 250.622 517.187 250 507 250C440.747 250 377.207 276.299 330.333 323.114V318.335H266.999V295.001H330.333V266.668H266.999C266.999 256.668 268.666 248.335 271.999 241.668C275.332 235.001 278.666 230.001 283.666 225.001C286.999 220.001 293.666 216.668 300.333 215.001C307 213.334 315.333 211.668 323.666 211.668C330.333 211.668 335.332 211.668 341.999 213.335C348.666 215.002 353.666 216.668 358.666 218.335L365.333 173.335C358.875 170.106 350.852 170.005 344.296 168.486L343.036 168.184C336.48 166.668 328.457 166.668 321.999 166.668C306.999 166.668 291.999 168.335 278.666 173.335C265.333 176.668 253.666 183.335 243.666 191.668C233.666 200.001 227 211.668 220.333 223.335C215.333 236.668 212 250.001 210.333 266.668H178.666V295.001H210.333V318.335H178.666V346.668H210.333C210.333 363.334 213.666 378.334 218.666 390.001C225.333 403.334 231.999 413.335 241.999 421.668C248.131 427.8 256.07 433.027 265.148 436.69C259.783 457.187 257 478.45 257 500C257 516.284 258.59 532.405 261.682 548.154C206.551 541.42 154.904 516.457 115.224 476.776C68.3395 429.892 42 366.304 42 300C42 233.696 68.3395 170.108 115.224 123.224C162.108 76.3395 225.696 50 292 50ZM309.543 346.668C299.172 360.023 290.225 374.34 282.805 389.381C278.276 385.886 275.137 379.611 271.999 373.335C268.666 366.668 266.999 356.668 266.999 346.668H309.543Z" fill="url(#paint0_linear_433_61)"/>
<path d="M507 250C573.304 250 636.892 276.34 683.776 323.224C730.66 370.108 757 433.696 757 500C757 566.304 730.66 629.892 683.776 676.776C636.892 723.66 573.304 750 507 750C440.696 750 377.108 723.66 330.224 676.776C283.34 629.892 257 566.304 257 500C257 433.696 283.34 370.108 330.224 323.224C377.108 276.34 440.696 250 507 250ZM500.334 321.668V361.668C490.334 363.335 478.667 366.668 470.334 370.001C462.001 375.001 453.668 380.001 447.001 386.668C440.334 393.335 435.334 401.668 432.001 410.001C428.668 418.334 427.001 428.335 427.001 438.335C427.001 450.001 430.334 461.668 433.667 470.001C437 478.334 443.667 486.668 450.334 493.335C457.001 500.002 465.334 506.668 475.334 511.668C485.334 516.668 497 521.668 508.667 526.668C515.334 530.001 522.001 531.668 527.001 535.001C532.001 536.668 535.334 540.002 538.667 543.335C542 546.668 543.667 551.668 545.334 555.001C547.001 558.334 547.001 563.335 547.001 568.335C547.001 573.335 547.001 578.335 545.334 581.668C543.667 585.001 542 588.335 538.667 591.668C535.334 595.001 532.001 596.668 527.001 598.335C523.668 600.002 518.667 600.001 512.001 600.001C507.001 600.001 502.001 600.001 497.001 598.335C492.001 596.668 487 593.334 483.667 590.001C478.667 585.001 475.334 581.667 473.667 575.001C472 570.001 470.334 561.668 470.334 553.335H415.334C415.334 568.335 417.001 581.668 422.001 591.668C427.001 601.668 432.001 611.668 440.334 618.335C447.001 626.668 455.334 631.668 465.334 635.001C475.334 638.334 485.334 640.001 495.334 641.668V678.335H525.334V641.668C535.334 640.001 545.334 636.668 555.334 633.335C563.667 630.002 572 625.001 578.667 618.335C585.334 611.668 590.334 603.334 593.667 595.001C597 586.668 598.667 576.668 598.667 565.001C598.667 553.335 595.334 541.668 592.001 533.335C588.668 525.002 582.001 516.668 575.334 510.001C568.667 503.334 560.334 496.668 550.334 491.668C540.334 486.668 528.668 481.668 517.001 476.668C510.334 473.335 503.667 471.668 498.667 468.335C493.667 466.668 490.334 463.334 487.001 460.001C483.668 456.668 482.001 453.334 480.334 450.001C480.334 446.668 478.668 441.668 480.334 438.335C480.334 433.335 480.334 428.334 482.001 425.001C482.001 421.668 483.668 418.334 487.001 415.001C490.334 411.668 493.668 410.002 497.001 408.335C502.001 406.668 507.001 405.001 512.001 405.001C522.001 405.001 530.334 410.001 537.001 416.668C543.667 423.335 547.001 435.001 547.001 450.001H602.001C602.001 438.334 600.334 426.668 597.001 416.668C593.668 406.668 588.668 396.668 582.001 390.001C577.001 381.668 568.667 376.668 560.334 371.668C550.334 366.668 540.334 363.335 530.334 361.668V321.668H500.334Z" fill="url(#paint1_linear_433_61)"/>
<defs>
<linearGradient id="paint0_linear_433_61" x1="292" y1="50" x2="292" y2="549.999" gradientUnits="userSpaceOnUse">
<stop stop-color="#A2792A"/>
<stop offset="0.658654" stop-color="#A2792A"/>
</linearGradient>
<linearGradient id="paint1_linear_433_61" x1="507" y1="250" x2="507" y2="750" gradientUnits="userSpaceOnUse">
<stop offset="0.375" stop-color="#A2792A"/>
<stop offset="1" stop-color="#A2792A"/>
</linearGradient>
</defs>
</svg>
