<svg width="800" height="800" viewBox="0 0 800 800" fill="none" xmlns="http://www.w3.org/2000/svg">
<path d="M291.301 481.124L291.276 481.099L291.151 481.024L291.301 481.124ZM766.776 402.449L711.601 256.474L511.051 147.449L95.4508 368.974L34.6758 531.349L279.676 661.699L283.701 485.024L93.1008 376.199L109.451 384.849L100.126 379.474L133.426 397.174L103.126 379.474L291.276 481.099L696.401 271.699L631.551 307.299L707.476 268.524L557.201 348.099L296.351 491.274L279.651 661.674L766.751 402.399L766.776 402.449ZM299.401 430.149L189.676 371.599L296.401 404.599L623.151 259.599L299.401 430.149Z" fill="url(#paint0_linear_431_3370)"/>
<defs>
<linearGradient id="paint0_linear_431_3370" x1="400.726" y1="147.449" x2="400.726" y2="661.699" gradientUnits="userSpaceOnUse">
<stop stop-color="#DDB45C"/>
<stop offset="1" stop-color="#926D26"/>
</linearGradient>
</defs>
</svg>
