<svg width="800" height="800" viewBox="0 0 800 800" fill="none" xmlns="http://www.w3.org/2000/svg">
<path d="M576.429 76.431C566.666 86.1943 566.666 101.908 566.666 133.335V566.668C566.666 598.095 566.666 613.808 576.429 623.571C586.193 633.335 601.906 633.335 633.333 633.335C664.759 633.335 680.473 633.335 690.236 623.571C699.999 613.808 699.999 598.095 699.999 566.668V133.335C699.999 101.908 699.999 86.1943 690.236 76.431C680.473 66.668 664.759 66.668 633.333 66.668C601.906 66.668 586.193 66.668 576.429 76.431Z" fill="url(#paint0_linear_431_3394)"/>
<path d="M333.334 233.335C333.334 201.908 333.334 186.194 343.097 176.431C352.861 166.668 368.574 166.668 400.001 166.668C431.427 166.668 447.141 166.668 456.904 176.431C466.667 186.194 466.667 201.908 466.667 233.335V566.668C466.667 598.095 466.667 613.808 456.904 623.571C447.141 633.335 431.427 633.335 400.001 633.335C368.574 633.335 352.861 633.335 343.097 623.571C333.334 613.808 333.334 598.095 333.334 566.668V233.335Z" fill="url(#paint1_linear_431_3394)"/>
<path d="M109.763 309.763C100 319.526 100 335.24 100 366.667V566.667C100 598.093 100 613.807 109.763 623.57C119.526 633.333 135.24 633.333 166.667 633.333C198.094 633.333 213.807 633.333 223.57 623.57C233.333 613.807 233.333 598.093 233.333 566.667V366.667C233.333 335.24 233.333 319.526 223.57 309.763C213.807 300 198.094 300 166.667 300C135.24 300 119.526 300 109.763 309.763Z" fill="url(#paint2_linear_431_3394)"/>
<path d="M100 708.332C86.193 708.332 75 719.525 75 733.332C75 747.139 86.193 758.332 100 758.332H700C713.807 758.332 725 747.139 725 733.332C725 719.525 713.807 708.332 700 708.332H100Z" fill="url(#paint3_linear_431_3394)"/>
<defs>
<linearGradient id="paint0_linear_431_3394" x1="633.333" y1="66.668" x2="633.333" y2="633.335" gradientUnits="userSpaceOnUse">
<stop stop-color="#A2792A"/>
<stop offset="1" stop-color="#A2792A"/>
</linearGradient>
<linearGradient id="paint1_linear_431_3394" x1="400.001" y1="166.668" x2="400.001" y2="633.335" gradientUnits="userSpaceOnUse">
<stop stop-color="#A2792A"/>
<stop offset="1" stop-color="#A2792A"/>
</linearGradient>
<linearGradient id="paint2_linear_431_3394" x1="166.667" y1="300" x2="166.667" y2="633.333" gradientUnits="userSpaceOnUse">
<stop stop-color="#A2792A"/>
<stop offset="1" stop-color="#A2792A"/>
</linearGradient>
<linearGradient id="paint3_linear_431_3394" x1="400" y1="708.332" x2="400" y2="758.332" gradientUnits="userSpaceOnUse">
<stop stop-color="#A2792A"/>
<stop offset="1" stop-color="#A2792A"/>
</linearGradient>
</defs>
</svg>
