<svg width="800" height="800" viewBox="0 0 800 800" fill="none" xmlns="http://www.w3.org/2000/svg">
<path d="M642 490.625C642 481.563 639.188 472.75 634 464.313V335.625C639.188 327.25 642 318.438 642 309.313C642 300.188 639.188 291.438 634 283V128.25H165.937V283.063C160.75 291.438 157.938 300.25 157.938 309.375C157.938 318.5 160.75 327.25 165.937 335.688V464.375C160.75 472.75 157.938 481.563 157.938 490.688C157.938 499.813 160.75 508.563 165.937 517V645.688C160.75 654.062 157.938 662.875 157.938 672C158 728.875 266.312 775 400 775C533.688 775 642 728.875 642 671.938C642 662.875 639.188 654.063 634 645.625V516.938C639.25 508.563 642 499.75 642 490.625Z" fill="#C1A25F"/>
<path d="M564.625 364.812C597.687 350.75 619 332.812 623.375 315.812C624.375 311.875 628.063 309.312 632 309.312C636.813 309.312 640.625 313.188 641.062 317.75C641.625 314.938 641.938 312.125 641.938 309.312C641.938 300.25 639.125 291.437 633.938 283V128.25H531.313L379 230.75L451.125 248.25C468.313 252.438 480.5 268.312 480.5 286.625V356.688C480.5 373.062 495.063 385.438 510.5 381.938C530.25 377.438 548.5 371.687 564.625 364.812Z" fill="#A2792A"/>
<path d="M634.062 464.375V335.625C614.438 367.375 560.188 393.125 489.563 405.125C489.438 405.125 489.25 405.188 489.125 405.188C461.563 409.813 431.5 412.375 400.063 412.375C314.25 412.375 238.875 393.312 195.938 364.625C276.25 453.375 435.5 438.625 435.5 438.625C441.313 438.25 447 437.812 452.625 437.25C467.625 435.812 480.562 448 480.562 463.562V548.25C480.562 559.062 490.063 567.312 500.313 565.312C523.938 560.562 545.75 554.125 564.688 546.063C597.75 532 619.062 514.062 623.438 497.062C624.438 493.125 628.125 490.562 632.062 490.562C636.875 490.562 640.688 494.437 641.125 499C641.688 496.187 642 493.375 642 490.562C642 481.562 639.25 472.75 634.062 464.375Z" fill="#A2792A"/>
<path d="M634.062 645.625V516.938C614.437 548.688 560.188 574.438 489.562 586.438C489.438 586.438 489.25 586.5 489.125 586.5C461.562 591.125 431.5 593.687 400.062 593.687C303.25 593.687 219.75 569.5 181.062 534.5C254.375 644.375 435.5 627.625 435.5 627.625C441.5 627.25 447.375 626.75 453.188 626.188C467.938 624.75 480.625 636.688 480.625 652V707.062C480.625 730.187 501.75 747 523.5 741.313C538.312 737.375 552.188 732.75 564.75 727.375C597.812 713.312 619.125 695.375 623.5 678.375C624.5 674.438 628.188 671.875 632.125 671.875C634.062 671.875 637.562 675.125 641.375 679.625C641.812 677.062 642.062 674.438 642.062 671.875C642 662.875 639.25 654.063 634.062 645.625Z" fill="#A2792A"/>
<path d="M235.813 364.812C202.75 350.75 181.438 332.812 177.063 315.812C176.063 311.875 172.375 309.312 168.438 309.312C162.5 309.312 158 315.125 159.563 321.062C172.125 368.187 259.313 405.625 369.5 411.5C374.688 411.75 379.063 407.438 379.063 402.062C379.063 397.062 375.25 393 370.375 392.688C319.313 390.062 272.375 380.375 235.813 364.812Z" fill="#DDB45C"/>
<path d="M235.813 546.125C202.75 532.062 181.438 514.125 177.063 497.125C176.063 493.188 172.375 490.625 168.438 490.625C162.5 490.625 158 496.437 159.563 502.375C172.125 549.5 259.313 586.937 369.5 592.812C374.688 593.062 379.063 588.75 379.063 583.375C379.063 578.375 375.25 574.312 370.375 574C319.313 571.375 272.375 561.687 235.813 546.125Z" fill="#DDB45C"/>
<path d="M235.813 727.437C202.75 713.375 181.438 695.438 177.063 678.438C176.063 674.5 172.375 671.938 168.438 671.938C162.5 671.938 158 677.75 159.563 683.687C172.125 730.812 259.313 768.25 369.5 774.125C374.688 774.375 379.063 770.062 379.063 764.687C379.063 759.687 375.25 755.625 370.375 755.312C319.313 752.687 272.375 743 235.813 727.437Z" fill="#DDB45C"/>
<path d="M183.875 148.312C184.188 118 212.125 103.688 239.625 91.6875C282.188 73.125 339.125 62.9375 399.938 62.9375C460.75 62.9375 517.75 73.125 560.25 91.6875C587.75 103.688 616.625 117.125 616.063 148.312L633.938 133.062C620.938 69.9375 519.562 33.4375 400 33.4375C280.438 33.4375 175.438 69 165.938 133.062L183.875 148.312Z" fill="#A2792A"/>
<path d="M400 43.75C462.188 43.75 520.375 53.9375 563.812 72.4375C601.062 88.3125 623.313 109.062 623.313 128.062C623.313 147 601.062 167.812 563.812 183.688C520.375 202.188 462.188 212.375 400 212.375C337.813 212.375 279.625 202.188 236.188 183.688C198.938 167.812 176.687 147.062 176.687 128.062C176.687 109.125 198.938 88.3125 236.188 72.4375C279.625 53.9375 337.813 43.75 400 43.75ZM400 25C266.313 25 158 71.125 158 128.062C158 185 266.375 231.125 400 231.125C533.625 231.125 642 185 642 128.062C642 71.125 533.688 25 400 25Z" fill="#EFD59C"/>
<path d="M486.188 168.062V152.625L558.625 151.812V168.062C558.625 176.562 542.437 183.5 522.437 183.5C502.437 183.5 486.188 176.562 486.188 168.062Z" fill="#A2792A"/>
<path d="M269.125 106.123V95.2483C272.625 94.3733 312.125 96.2483 316.438 96.2483V106.186C316.438 111.748 305.875 116.248 292.812 116.248C279.687 116.186 269.125 111.686 269.125 106.123Z" fill="#A2792A"/>
<path d="M522.437 169.438C542.423 169.438 558.625 162.526 558.625 154C558.625 145.474 542.423 138.562 522.437 138.562C502.452 138.562 486.25 145.474 486.25 154C486.25 162.526 502.452 169.438 522.437 169.438Z" fill="#614200"/>
<path d="M292.75 106.25C305.798 106.25 316.375 101.745 316.375 96.1875C316.375 90.6301 305.798 86.125 292.75 86.125C279.702 86.125 269.125 90.6301 269.125 96.1875C269.125 101.745 279.702 106.25 292.75 106.25Z" fill="#614200"/>
<path d="M220.125 186.312C245.063 199.187 275.875 208 301.875 212.438" stroke="white" stroke-width="18.75" stroke-miterlimit="10" stroke-linecap="round"/>
</svg>
