<svg width="62" height="62" viewBox="0 0 62 62" fill="none" xmlns="http://www.w3.org/2000/svg">
<path d="M51.5802 15.329C28.2957 59.6251 8.09398 46.9608 0.774414 35.3071C0.774414 42.7413 14.4662 56.9274 28.4161 56.2322C50.5296 55.1299 55.8283 36.3691 55.7134 27.1263C42.9001 50.411 26.1485 52.9599 19.3745 51.3239C35.5635 50.4972 51.2071 29.1068 57.0052 18.5151L60.8803 20.8401L61.9996 4.30664L48.1356 13.2623L51.5802 15.329Z" fill="url(#paint0_linear_356_134)"/>
<path d="M6.88867 19.5488C10.6933 19.5488 13.7783 22.6338 13.7783 26.4385C13.7781 30.243 10.6932 33.3271 6.88867 33.3271C3.08425 33.327 0.000176044 30.2429 0 26.4385C0 22.6339 3.08414 19.549 6.88867 19.5488ZM8.23926 20.9502C6.75493 20.5799 5.02115 20.9345 3.76172 21.9248C2.49228 22.9001 1.66968 24.3304 1.33105 25.8154C1.29497 25.9793 1.26395 26.1503 1.24414 26.3135C1.32378 26.1696 1.41075 26.022 1.49805 25.8828C2.29967 24.6241 3.23986 23.5222 4.33691 22.6777C5.43286 21.8318 6.73711 21.2889 8.22754 21.1299C8.39275 21.1115 8.55631 21.0967 8.72852 21.0869C8.56452 21.034 8.40488 20.9889 8.23926 20.9502Z" fill="url(#paint1_linear_356_134)"/>
<path d="M30.4824 12.835C35.999 12.8351 40.4706 17.3067 40.4707 22.8232C40.4707 28.3399 35.9991 32.8124 30.4824 32.8125C24.9657 32.8125 20.4932 28.34 20.4932 22.8232C20.4933 17.3066 24.9658 12.835 30.4824 12.835ZM32.7617 14.5225C30.426 13.9398 27.697 14.498 25.7148 16.0566C23.7169 17.5915 22.4229 19.8424 21.8896 22.1797C21.8328 22.4379 21.7827 22.7073 21.752 22.9648C21.8773 22.7381 22.0148 22.5054 22.1523 22.2861C23.4138 20.3049 24.8935 18.5707 26.6201 17.2412C28.3454 15.9098 30.3982 15.0557 32.7441 14.8057C33.0042 14.7768 33.2612 14.7537 33.5322 14.7383C33.2738 14.6551 33.0227 14.5833 32.7617 14.5225Z" fill="url(#paint2_linear_356_134)"/>
<path d="M16.375 3.53125C19.9894 3.53125 22.9199 6.46175 22.9199 10.0762C22.9199 13.6906 19.9894 16.6201 16.375 16.6201C12.7607 16.6201 9.8311 13.6905 9.83105 10.0762C9.83105 6.46178 12.7606 3.53131 16.375 3.53125ZM17.8545 5.06348C16.3848 4.69675 14.6681 5.04763 13.4209 6.02832C12.1636 6.99434 11.3483 8.41102 11.0127 9.88184C10.977 10.0445 10.9463 10.214 10.9268 10.376C11.0057 10.2335 11.0914 10.0871 11.1777 9.94922C11.9715 8.70241 12.9035 7.61107 13.9902 6.77441C15.0758 5.93659 16.3676 5.39853 17.8438 5.24121C18.0074 5.22303 18.1692 5.20901 18.3398 5.19922C18.1772 5.14678 18.0188 5.1017 17.8545 5.06348Z" fill="url(#paint3_linear_356_134)"/>
<path d="M32.043 0.78125C33.9451 0.781425 35.4873 2.32336 35.4873 4.22559C35.4872 6.12771 33.9451 7.66975 32.043 7.66992C30.1407 7.66992 28.5987 6.12782 28.5986 4.22559C28.5986 2.32325 30.1406 0.78125 32.043 0.78125ZM32.7637 1.62793C32.0165 1.44148 31.1437 1.62063 30.5098 2.11914C29.8706 2.61015 29.4567 3.32963 29.2861 4.07715C29.268 4.15982 29.2522 4.24592 29.2422 4.32812C29.2825 4.25573 29.3261 4.18139 29.3701 4.11133C29.7736 3.47769 30.2467 2.92327 30.7988 2.49805C31.3506 2.07232 32.0075 1.79874 32.7578 1.71875C32.8407 1.70944 32.9232 1.70216 33.0098 1.69727C32.9271 1.67074 32.8472 1.64748 32.7637 1.62793Z" fill="url(#paint4_linear_356_134)"/>
<defs>
<linearGradient id="paint0_linear_356_134" x1="31.3871" y1="4.30664" x2="31.3871" y2="56.2567" gradientUnits="userSpaceOnUse">
<stop stop-color="#E6BE64"/>
<stop offset="1" stop-color="#A17729"/>
</linearGradient>
<linearGradient id="paint1_linear_356_134" x1="6.88919" y1="19.5489" x2="6.88919" y2="33.3272" gradientUnits="userSpaceOnUse">
<stop stop-color="#E6BE64"/>
<stop offset="1" stop-color="#A17729"/>
</linearGradient>
<linearGradient id="paint2_linear_356_134" x1="30.482" y1="12.8349" x2="30.482" y2="32.8128" gradientUnits="userSpaceOnUse">
<stop stop-color="#E6BE64"/>
<stop offset="1" stop-color="#A17729"/>
</linearGradient>
<linearGradient id="paint3_linear_356_134" x1="16.3755" y1="3.5313" x2="16.3755" y2="16.6204" gradientUnits="userSpaceOnUse">
<stop stop-color="#E6BE64"/>
<stop offset="1" stop-color="#A17729"/>
</linearGradient>
<linearGradient id="paint4_linear_356_134" x1="32.0429" y1="0.781157" x2="32.0429" y2="7.6697" gradientUnits="userSpaceOnUse">
<stop stop-color="#E6BE64"/>
<stop offset="1" stop-color="#A17729"/>
</linearGradient>
</defs>
</svg>
