<svg width="211" height="72" viewBox="0 0 211 72" fill="none" xmlns="http://www.w3.org/2000/svg">
<path d="M68.7314 18.6296C38.9139 75.354 13.0441 59.1364 3.6709 44.213C3.6709 53.7331 21.2042 71.8994 39.0682 71.0092C67.386 69.5975 74.1715 45.573 74.0243 33.7369C57.6159 63.5546 36.1643 66.8187 27.4897 64.7236C48.2208 63.665 68.2536 36.2731 75.6786 22.7097L80.6408 25.687L82.0743 4.51465L64.3204 15.983L68.7314 18.6296Z" fill="url(#paint0_linear_356_92)"/>
<path d="M11.5 24.0342C16.372 24.0342 20.3221 27.9834 20.3223 32.8555C20.3223 37.7276 16.3721 41.6777 11.5 41.6777C6.62809 41.6775 2.67871 37.7275 2.67871 32.8555C2.67885 27.9836 6.62818 24.0344 11.5 24.0342ZM13.2295 25.8281C11.3288 25.354 9.1088 25.8081 7.49609 27.0762C5.87049 28.3252 4.81742 30.1569 4.38379 32.0586C4.33758 32.2685 4.29685 32.4873 4.27148 32.6963C4.37345 32.5121 4.48489 32.3238 4.59668 32.1455C5.62333 30.5333 6.82832 29.1216 8.2334 28.04C9.63689 26.9569 11.3072 26.2621 13.2158 26.0586C13.4273 26.035 13.636 26.0164 13.8564 26.0039C13.6463 25.9362 13.4417 25.8777 13.2295 25.8281Z" fill="url(#paint1_linear_356_92)"/>
<path d="M41.7139 15.4355C48.7783 15.4357 54.5048 21.1621 54.5049 28.2266C54.5049 35.2911 48.7784 41.0184 41.7139 41.0186C34.6493 41.0186 28.9219 35.2912 28.9219 28.2266C28.922 21.162 34.6493 15.4355 41.7139 15.4355ZM44.6318 17.5977C41.6409 16.8516 38.1466 17.5656 35.6084 19.5615C33.0498 21.5271 31.3928 24.4102 30.71 27.4033C30.6372 27.7339 30.5736 28.0785 30.5342 28.4082C30.6947 28.1179 30.8699 27.8208 31.0459 27.54C32.6614 25.0027 34.5574 22.7817 36.7686 21.0791C38.9779 19.3742 41.6064 18.2802 44.6104 17.96C44.9433 17.923 45.2722 17.8937 45.6191 17.874C45.2882 17.7675 44.9661 17.6756 44.6318 17.5977Z" fill="url(#paint2_linear_356_92)"/>
<path d="M23.6475 3.52246C28.2759 3.52246 32.0281 7.27397 32.0283 11.9023C32.0283 16.5309 28.276 20.2832 23.6475 20.2832C19.0191 20.283 15.2676 16.5308 15.2676 11.9023C15.2678 7.27407 19.0192 3.52262 23.6475 3.52246ZM25.5439 5.48438C23.6618 5.01465 21.4625 5.46376 19.8652 6.71973C18.2552 7.95671 17.212 9.77092 16.7822 11.6543C16.7366 11.8626 16.696 12.0797 16.6709 12.2871C16.7721 12.1045 16.8834 11.9169 16.9941 11.7402C18.0106 10.1437 19.2032 8.74613 20.5947 7.6748C21.9848 6.602 23.6391 5.91338 25.5293 5.71191C25.7388 5.68864 25.9466 5.66976 26.165 5.65723C25.9569 5.59013 25.7542 5.5333 25.5439 5.48438Z" fill="url(#paint3_linear_356_92)"/>
<path d="M43.7119 0C46.148 0 48.123 1.97506 48.123 4.41113C48.1229 6.8471 46.1479 8.82227 43.7119 8.82227C41.2759 8.82226 39.3009 6.8471 39.3008 4.41113C39.3008 1.97506 41.2759 3.99772e-06 43.7119 0ZM44.6348 1.08496C43.6781 0.846304 42.5607 1.07471 41.749 1.71289C40.9304 2.34172 40.4001 3.26427 40.1816 4.22168C40.1584 4.3275 40.1378 4.43775 40.125 4.54297C40.1766 4.45015 40.2327 4.35448 40.2891 4.26465C40.8059 3.45306 41.412 2.74282 42.1191 2.19824C42.8258 1.65304 43.6671 1.30358 44.6279 1.20117C44.7342 1.18923 44.8402 1.17912 44.9512 1.17285C44.8452 1.13883 44.7419 1.11003 44.6348 1.08496Z" fill="url(#paint4_linear_356_92)"/>
<path d="M109.944 23.1171C109.318 22.5086 108.579 22.0218 107.727 21.6565C106.893 21.2915 106.075 21.1089 105.275 21.1089C104.615 21.1089 103.997 21.2393 103.424 21.5001C102.867 21.7437 102.38 22.0914 101.963 22.5435C101.563 22.978 101.242 23.4997 100.998 24.1083C100.772 24.6995 100.659 25.3516 100.659 26.0643C100.659 26.7773 100.772 27.438 100.998 28.0465C101.242 28.6551 101.572 29.1854 101.989 29.6375C102.406 30.0897 102.902 30.446 103.476 30.7069C104.05 30.9504 104.667 31.0722 105.328 31.0722C105.936 31.0722 106.64 30.9155 107.44 30.6027C108.257 30.2897 109.005 29.8811 109.683 29.3767L112.761 33.1846C112.1 33.654 111.326 34.0716 110.44 34.4366C109.553 34.8019 108.631 35.08 107.675 35.2713C106.719 35.4799 105.806 35.5841 104.936 35.5841C103.528 35.5841 102.224 35.3495 101.024 34.8801C99.8419 34.3933 98.7986 33.7239 97.8943 32.8718C97.0076 32.0198 96.3209 31.0113 95.8338 29.8462C95.3471 28.6813 95.1035 27.4207 95.1035 26.0643C95.1035 24.7081 95.3557 23.4562 95.8601 22.3086C96.3642 21.1611 97.0771 20.1613 97.9987 19.3093C98.9203 18.4399 99.9983 17.7705 101.233 17.301C102.467 16.8316 103.823 16.5967 105.302 16.5967C106.241 16.5967 107.179 16.7098 108.118 16.9357C109.057 17.1619 109.944 17.4837 110.779 17.9009C111.631 18.3181 112.378 18.8225 113.022 19.4137L109.944 23.1171ZM108.092 25.7515H112.761V33.1846H108.092V25.7515ZM124.373 16.5967C125.816 16.5967 127.138 16.8316 128.338 17.301C129.555 17.7705 130.607 18.4312 131.493 19.2833C132.398 20.1351 133.093 21.1348 133.58 22.2827C134.084 23.4302 134.336 24.6822 134.336 26.0383C134.336 27.3944 134.084 28.664 133.58 29.8462C133.093 31.0113 132.398 32.0198 131.493 32.8718C130.607 33.7239 129.555 34.3933 128.338 34.8801C127.138 35.3495 125.816 35.5841 124.373 35.5841C122.93 35.5841 121.6 35.3495 120.383 34.8801C119.183 34.3933 118.131 33.7239 117.227 32.8718C116.34 32.0198 115.645 31.0113 115.14 29.8462C114.653 28.6813 114.41 27.412 114.41 26.0383C114.41 24.6646 114.653 23.4042 115.14 22.2564C115.645 21.1089 116.34 20.1177 117.227 19.2833C118.131 18.4312 119.183 17.7705 120.383 17.301C121.6 16.8316 122.93 16.5967 124.373 16.5967ZM124.452 21.1089C123.843 21.1089 123.261 21.2306 122.704 21.4742C122.165 21.7174 121.687 22.0651 121.27 22.5172C120.87 22.9694 120.548 23.4997 120.304 24.1083C120.079 24.6995 119.965 25.3516 119.965 26.0643C119.965 26.7773 120.087 27.438 120.331 28.0465C120.574 28.6551 120.896 29.1854 121.296 29.6375C121.713 30.0897 122.191 30.446 122.73 30.7069C123.269 30.9504 123.843 31.0722 124.452 31.0722C125.043 31.0722 125.599 30.9504 126.121 30.7069C126.643 30.446 127.103 30.0897 127.503 29.6375C127.903 29.1854 128.216 28.6551 128.442 28.0465C128.668 27.438 128.781 26.7773 128.781 26.0643C128.781 25.3516 128.668 24.6995 128.442 24.1083C128.216 23.4997 127.903 22.9694 127.503 22.5172C127.103 22.0651 126.643 21.7174 126.121 21.4742C125.599 21.2306 125.043 21.1089 124.452 21.1089ZM136.365 16.9357H141.789V30.6809H149.457V35.2191H136.365V16.9357ZM159.348 16.9357C160.843 16.9357 162.191 17.1533 163.391 17.5878C164.591 18.0227 165.616 18.6398 166.468 19.4397C167.338 20.2395 168.007 21.2044 168.477 22.3346C168.946 23.4475 169.181 24.6908 169.181 26.0643C169.181 27.438 168.946 28.69 168.477 29.8202C168.007 30.9331 167.329 31.898 166.442 32.7151C165.555 33.515 164.495 34.1324 163.26 34.567C162.043 35.0018 160.678 35.2191 159.165 35.2191H151.341V16.9357H159.348ZM159.504 30.9677C160.131 30.9677 160.687 30.8546 161.174 30.6287C161.678 30.3852 162.113 30.0548 162.478 29.6375C162.86 29.203 163.147 28.69 163.339 28.0988C163.547 27.5076 163.651 26.8468 163.651 26.1165C163.651 25.3862 163.547 24.7254 163.339 24.1345C163.13 23.5257 162.826 23.0043 162.426 22.5695C162.043 22.1173 161.582 21.7783 161.043 21.5524C160.504 21.3261 159.904 21.2133 159.244 21.2133H156.766V30.9677H159.504ZM171.208 16.9357H186.153V21.1089H176.633V23.9778H185.266V28.151H176.633V31.0459H186.413V35.2191H171.208V16.9357ZM189.012 16.9357H193.628L202.835 29.0377L201.4 29.5334V16.9357H206.356V35.2191H201.739L192.559 23.1693L193.993 22.6739V35.2191H189.012V16.9357Z" fill="url(#paint5_linear_356_92)"/>
<path d="M101.74 41.3911C102.583 41.3911 103.3 41.5158 103.894 41.765C104.499 42.0142 104.962 42.3703 105.282 42.8329C105.603 43.2957 105.763 43.8535 105.763 44.5059C105.763 45.23 105.561 45.8468 105.158 46.3572C104.754 46.8556 104.196 47.1761 103.484 47.3185C104.374 47.4489 105.069 47.793 105.567 48.3508C106.065 48.9086 106.314 49.6144 106.314 50.4689C106.314 51.181 106.136 51.7919 105.78 52.3022C105.424 52.8006 104.908 53.1862 104.232 53.4593C103.567 53.7201 102.76 53.8509 101.811 53.8509H96.4893V41.3911H101.74ZM101.669 46.8201C102.5 46.8201 103.146 46.6359 103.609 46.2683C104.084 45.9003 104.321 45.3783 104.321 44.702C104.321 44.0374 104.084 43.527 103.609 43.171C103.146 42.8033 102.5 42.6251 101.669 42.6371H97.9131V46.8201H101.669ZM101.669 52.6228C102.677 52.6228 103.461 52.421 104.018 52.0175C104.588 51.614 104.873 51.0443 104.873 50.3086C104.873 49.5968 104.588 49.045 104.018 48.6534C103.461 48.2499 102.677 48.0482 101.669 48.0482H97.9131V52.6228H101.669ZM115.353 48.7779C115.353 50.0239 115.691 50.9968 116.368 51.697C117.044 52.3852 117.97 52.7293 119.145 52.7293C120.319 52.7293 121.239 52.3852 121.904 51.697C122.58 51.0088 122.918 50.0358 122.918 48.7779V41.3911H124.324V48.7779C124.324 49.8577 124.117 50.7894 123.701 51.5725C123.298 52.3437 122.705 52.937 121.921 53.3525C121.15 53.756 120.225 53.9577 119.145 53.9577C118.065 53.9577 117.133 53.756 116.35 53.3525C115.567 52.937 114.968 52.3437 114.552 51.5725C114.137 50.7894 113.929 49.8577 113.929 48.7779V41.3911H115.353V48.7779ZM138.059 41.3911C138.902 41.3911 139.62 41.5158 140.213 41.765C140.818 42.0142 141.281 42.3703 141.601 42.8329C141.922 43.2957 142.082 43.8535 142.082 44.5059C142.082 45.23 141.88 45.8468 141.477 46.3572C141.073 46.8556 140.515 47.1761 139.803 47.3185C140.693 47.4489 141.387 47.793 141.886 48.3508C142.384 48.9086 142.633 49.6144 142.633 50.4689C142.633 51.181 142.456 51.7919 142.1 52.3022C141.744 52.8006 141.228 53.1862 140.551 53.4593C139.887 53.7201 139.08 53.8509 138.13 53.8509H132.808V41.3911H138.059ZM137.988 46.8201C138.818 46.8201 139.465 46.6359 139.928 46.2683C140.403 45.9003 140.64 45.3783 140.64 44.702C140.64 44.0374 140.403 43.527 139.928 43.171C139.465 42.8033 138.818 42.6251 137.988 42.6371H134.232V46.8201H137.988ZM137.988 52.6228C138.997 52.6228 139.78 52.421 140.338 52.0175C140.907 51.614 141.192 51.0443 141.192 50.3086C141.192 49.5968 140.907 49.045 140.338 48.6534C139.78 48.2499 138.997 48.0482 137.988 48.0482H134.232V52.6228H137.988ZM155.784 41.3911C156.627 41.3911 157.344 41.5158 157.938 41.765C158.543 42.0142 159.006 42.3703 159.326 42.8329C159.647 43.2957 159.807 43.8535 159.807 44.5059C159.807 45.23 159.605 45.8468 159.202 46.3572C158.798 46.8556 158.24 47.1761 157.529 47.3185C158.418 47.4489 159.113 47.793 159.611 48.3508C160.109 48.9086 160.358 49.6144 160.358 50.4689C160.358 51.181 160.181 51.7919 159.824 52.3022C159.468 52.8006 158.952 53.1862 158.276 53.4593C157.612 53.7201 156.805 53.8509 155.855 53.8509H150.533V41.3911H155.784ZM155.713 46.8201C156.543 46.8201 157.19 46.6359 157.653 46.2683C158.128 45.9003 158.365 45.3783 158.365 44.702C158.365 44.0374 158.128 43.527 157.653 43.171C157.19 42.8033 156.543 42.6251 155.713 42.6371H151.957V46.8201H155.713ZM155.713 52.6228C156.722 52.6228 157.505 52.421 158.062 52.0175C158.632 51.614 158.917 51.0443 158.917 50.3086C158.917 49.5968 158.632 49.045 158.062 48.6534C157.505 48.2499 156.722 48.0482 155.713 48.0482H151.957V52.6228H155.713ZM168.258 41.3911H169.682V52.6228H175.147V53.8509H168.258V41.3911ZM182.437 41.3911H190.892V42.6371H183.861V46.909H190.144V48.1371H183.861V52.6228H191.123V53.8509H182.437V41.3911ZM206.064 43.5984C205.696 43.3492 205.304 43.1534 204.889 43.011C204.485 42.8567 204.088 42.7439 203.696 42.6726C203.316 42.6015 202.96 42.566 202.628 42.566C201.821 42.566 201.175 42.726 200.688 43.0465C200.213 43.3668 199.976 43.8061 199.976 44.3636C199.976 44.8503 200.101 45.2419 200.35 45.5386C200.611 45.8352 200.949 46.0784 201.365 46.2683C201.78 46.4581 202.237 46.6303 202.735 46.7843C203.233 46.9269 203.732 47.0869 204.23 47.2651C204.729 47.431 205.186 47.6506 205.601 47.9234C206.016 48.1846 206.348 48.5287 206.598 48.9561C206.847 49.3712 206.971 49.9051 206.971 50.5578C206.971 51.246 206.781 51.8453 206.402 52.3556C206.022 52.854 205.494 53.2456 204.818 53.5303C204.141 53.8034 203.358 53.9398 202.468 53.9398C201.863 53.9398 201.27 53.8628 200.688 53.7085C200.107 53.5423 199.561 53.3169 199.05 53.0319C198.54 52.7472 198.089 52.421 197.698 52.053L198.339 50.8959C198.73 51.2639 199.157 51.5785 199.62 51.8393C200.083 52.1005 200.558 52.3022 201.044 52.4446C201.542 52.5869 202.023 52.6583 202.486 52.6583C203.388 52.6583 204.1 52.4744 204.622 52.1065C205.144 51.7385 205.405 51.2401 205.405 50.6112C205.405 50.1248 205.28 49.7272 205.031 49.4186C204.782 49.11 204.45 48.8611 204.034 48.671C203.619 48.4812 203.162 48.3153 202.664 48.1726C202.166 48.0303 201.661 47.876 201.151 47.71C200.653 47.5319 200.196 47.3185 199.78 47.0693C199.365 46.8081 199.033 46.47 198.784 46.0546C198.534 45.6394 198.41 45.1112 198.41 44.4704C198.41 43.8177 198.588 43.2543 198.944 42.7794C199.3 42.3049 199.804 41.9369 200.457 41.6761C201.109 41.403 201.863 41.2666 202.717 41.2666C203.441 41.2666 204.147 41.3734 204.836 41.5868C205.535 41.8005 206.147 42.0736 206.669 42.4058L206.064 43.5984Z" fill="url(#paint6_linear_356_92)"/>
<defs>
<linearGradient id="paint0_linear_356_92" x1="42.8727" y1="4.51465" x2="42.8727" y2="71.0405" gradientUnits="userSpaceOnUse">
<stop stop-color="#E6BE64"/>
<stop offset="1" stop-color="#A17729"/>
</linearGradient>
<linearGradient id="paint1_linear_356_92" x1="11.5005" y1="24.0342" x2="11.5005" y2="41.6777" gradientUnits="userSpaceOnUse">
<stop stop-color="#E6BE64"/>
<stop offset="1" stop-color="#A17729"/>
</linearGradient>
<linearGradient id="paint2_linear_356_92" x1="41.7134" y1="15.4355" x2="41.7134" y2="41.0186" gradientUnits="userSpaceOnUse">
<stop stop-color="#E6BE64"/>
<stop offset="1" stop-color="#A17729"/>
</linearGradient>
<linearGradient id="paint3_linear_356_92" x1="23.648" y1="3.52252" x2="23.648" y2="20.2835" gradientUnits="userSpaceOnUse">
<stop stop-color="#E6BE64"/>
<stop offset="1" stop-color="#A17729"/>
</linearGradient>
<linearGradient id="paint4_linear_356_92" x1="43.7119" y1="-0.000119383" x2="43.7119" y2="8.82198" gradientUnits="userSpaceOnUse">
<stop stop-color="#E6BE64"/>
<stop offset="1" stop-color="#A17729"/>
</linearGradient>
<linearGradient id="paint5_linear_356_92" x1="151.312" y1="14.9248" x2="151.312" y2="36.7113" gradientUnits="userSpaceOnUse">
<stop stop-color="#A2792A"/>
<stop offset="1" stop-color="#A2792A"/>
</linearGradient>
<linearGradient id="paint6_linear_356_92" x1="151.307" y1="40.1224" x2="151.307" y2="55.0446" gradientUnits="userSpaceOnUse">
<stop stop-color="#A2792A"/>
<stop offset="1" stop-color="#A2792A"/>
</linearGradient>
</defs>
</svg>
